<svg xmlns="http://www.w3.org/2000/svg" width="32" height="32" viewBox="0 0 256 256"><path fill="currentColor" d="M104.8 97.9Zm53.3 53.3Zm-53.3-53.3L28.1 202.5a7.9 7.9 0 0 0 .8 10.4l14.2 14.2a7.9 7.9 0 0 0 10.4.8l104.6-76.7a63.9 63.9 0 0 1-53.3-53.3Z" opacity=".2"/><path fill="currentColor" d="M219.5 138.2A71.9 71.9 0 0 0 117.8 36.5l-.7.6l-.6.7A71.6 71.6 0 0 0 96 88a65.1 65.1 0 0 0 .4 7.7l-74.8 102a16 16 0 0 0 1.6 20.8l14.3 14.3a16 16 0 0 0 20.8 1.6l102-74.8a65.1 65.1 0 0 0 7.7.4a71.6 71.6 0 0 0 50.2-20.5l.7-.6ZM224 88a55.5 55.5 0 0 1-11.2 33.5l-78.3-78.3A55.9 55.9 0 0 1 224 88ZM48.8 221.5l-14.3-14.3l67.1-91.4a72.2 72.2 0 0 0 38.6 38.6ZM112 88a55.5 55.5 0 0 1 11.2-33.5l78.3 78.3A55.9 55.9 0 0 1 112 88Zm-6.3 62.3a8.1 8.1 0 0 1 0 11.4l-12 12a8.2 8.2 0 0 1-11.4 0a8.1 8.1 0 0 1 0-11.4l12-12a8.1 8.1 0 0 1 11.4 0Z"/></svg>